<?xml version="1.0" standalone="no"?>
<!DOCTYPE svg PUBLIC "-//W3C//DTD SVG 20010904//EN"
 "http://www.w3.org/TR/2001/REC-SVG-20010904/DTD/svg10.dtd">
<svg version="1.0" xmlns="http://www.w3.org/2000/svg"
 width="900.000000pt" height="784.000000pt" viewBox="0 0 900.000000 784.000000"
 preserveAspectRatio="xMidYMid meet">

<g transform="translate(0.000000,784.000000) scale(0.100000,-0.100000)"
fill="#000000" stroke="none">
<path d="M4078 7833 l-97 -4 -3 -42 -3 -42 -110 -7 c-213 -14 -543 -60 -682
-95 -21 -5 -23 -2 -23 37 0 35 -3 41 -17 36 -10 -3 -67 -19 -127 -36 -363
-104 -622 -274 -779 -512 -63 -95 -117 -211 -166 -360 -18 -54 -36 -98 -39
-98 -6 0 -355 273 -523 409 -96 78 -241 131 -359 131 -253 0 -492 -197 -546
-449 -17 -84 -17 -138 1 -226 26 -125 68 -189 301 -459 117 -137 214 -252 214
-256 0 -3 -35 -21 -77 -40 -187 -80 -468 -225 -579 -298 -294 -195 -408 -394
-449 -788 -8 -79 -15 -146 -15 -149 0 -3 18 -5 40 -5 l40 0 0 -595 0 -595 -40
0 -40 0 0 -52 c0 -135 34 -393 64 -498 63 -214 185 -368 409 -517 131 -88 435
-240 782 -392 320 -141 365 -164 456 -237 137 -109 203 -228 319 -569 44 -129
95 -267 114 -307 157 -330 428 -535 881 -664 65 -19 125 -34 132 -34 8 0 13
14 13 38 l0 39 118 -23 c162 -32 317 -52 507 -65 88 -6 166 -13 173 -15 7 -2
12 -20 12 -42 l0 -39 143 -6 c181 -9 666 -9 735 -1 l52 7 0 37 0 37 113 7
c180 11 412 35 545 56 160 26 152 27 152 -15 0 -43 -2 -43 153 -4 335 84 584
208 751 373 150 149 219 276 335 619 115 338 179 456 308 561 84 70 128 93
433 224 826 355 1039 497 1171 777 37 79 93 271 83 287 -3 4 -21 8 -41 8 l-36
0 7 48 c14 111 26 297 26 429 0 78 3 148 6 157 4 11 19 16 45 16 l39 0 0 350
0 350 -39 0 -38 0 -7 163 c-8 192 -22 337 -40 424 l-14 63 39 0 c22 0 39 5 39
11 0 24 -53 157 -85 214 -140 247 -359 388 -1090 700 -371 159 -411 179 -498
251 -129 105 -193 223 -308 561 -116 343 -185 470 -335 619 -167 165 -419 291
-752 374 -153 38 -152 38 -152 -5 0 -42 8 -41 -152 -15 -133 21 -365 45 -545
56 l-113 7 0 37 0 37 -52 7 c-52 6 -588 5 -780 -1z m706 -79 l46 -7 0 -403 0
-404 485 0 485 0 0 350 c0 296 2 350 14 350 8 0 68 -15 133 -34 276 -80 459
-176 612 -321 145 -138 219 -275 331 -614 101 -307 165 -427 291 -547 98 -93
154 -124 448 -249 695 -294 864 -386 1036 -559 66 -67 100 -111 128 -166 l39
-75 -582 -3 -582 -2 -93 35 c-51 19 -132 41 -180 50 -101 17 -299 18 -395 1
l-65 -11 -69 120 c-129 227 -267 407 -450 590 -424 423 -940 684 -1537 777
-121 18 -185 22 -399 22 -214 0 -278 -4 -399 -22 -520 -81 -976 -289 -1381
-630 -350 -294 -649 -727 -800 -1158 l-31 -91 -67 20 c-54 16 -97 20 -222 21
-180 1 -246 -14 -387 -90 l-83 -44 -511 0 -511 0 6 68 c18 181 63 340 127 448
19 32 68 93 109 134 153 156 370 275 987 541 357 153 397 175 502 274 123 115
188 238 295 558 113 338 181 464 331 605 90 86 181 147 308 207 85 41 290 115
316 115 8 0 12 -101 13 -347 l3 -348 485 0 485 0 3 417 2 417 83 4 c161 6 595
7 641 1z m441 -105 c127 -10 452 -55 479 -65 14 -5 16 -40 16 -285 l0 -279
-405 0 -405 0 0 326 0 326 98 -6 c53 -4 151 -11 217 -17z m-1245 -319 l0 -330
-410 0 -410 0 0 274 c0 172 4 277 10 281 44 27 556 98 743 103 l67 2 0 -330z
m885 -780 c463 -69 878 -247 1255 -538 110 -85 368 -343 452 -452 89 -116 163
-227 225 -339 l52 -95 -109 -53 c-143 -69 -233 -151 -287 -260 -34 -68 -37
-82 -37 -158 0 -76 3 -90 37 -158 90 -182 335 -323 613 -353 l61 -6 7 -61 c3
-33 6 -104 6 -158 l0 -98 -47 -6 c-252 -32 -423 -104 -551 -231 -171 -171
-171 -397 2 -568 84 -83 196 -146 339 -190 37 -12 -162 -357 -328 -567 -75
-96 -318 -339 -415 -415 -603 -475 -1357 -669 -2110 -543 -421 71 -838 256
-1190 527 -110 85 -368 343 -452 452 -211 274 -365 574 -462 898 l-14 50 78
46 c144 83 265 216 334 368 58 123 70 186 70 343 0 124 -4 150 -28 230 -15 49
-40 114 -57 145 -70 132 -193 261 -311 328 -27 15 -48 32 -48 39 0 21 61 186
106 285 132 294 321 564 560 800 451 445 1015 702 1674 762 110 10 440 -4 575
-24z m3919 -1587 c25 -82 67 -580 52 -620 -4 -11 -96 -13 -511 -13 -278 0
-505 3 -505 6 0 3 20 28 44 56 24 28 57 76 72 107 26 50 29 66 29 156 0 90 -3
105 -29 157 -16 32 -51 82 -78 113 l-50 55 486 0 c453 0 485 -1 490 -17z
m-7800 -415 c-114 -123 -190 -277 -215 -440 -15 -97 -6 -254 21 -348 28 -98
101 -236 162 -304 26 -30 48 -57 48 -60 0 -3 -189 -6 -420 -6 l-420 0 0 588
c0 324 3 592 7 595 3 4 195 7 427 7 l420 0 -30 -32z m7936 -568 l0 -270 -621
0 -622 0 -86 34 c-91 36 -191 60 -303 71 l-68 7 0 113 c0 62 -3 132 -6 157
l-6 45 78 6 c113 9 215 32 308 71 l81 34 623 1 622 1 0 -270z m-93 -572 c-3
-123 -11 -269 -18 -325 l-12 -103 -494 0 -495 0 50 55 c28 30 63 81 79 113 25
50 28 68 28 152 0 87 -3 101 -32 160 -18 36 -53 87 -78 114 -25 27 -45 51 -45
53 0 2 230 3 512 3 l511 0 -6 -222z m-7689 -117 c50 -35 131 -71 219 -97 75
-23 107 -27 218 -28 95 0 147 5 194 18 35 9 64 16 65 14 1 -2 23 -68 50 -148
216 -654 677 -1203 1291 -1538 278 -151 581 -252 915 -303 208 -32 572 -33
778 -1 218 34 425 88 589 153 656 259 1155 712 1474 1337 l53 103 55 -8 c91
-12 289 -6 376 12 44 9 121 32 171 51 l92 34 590 0 591 0 -15 -52 c-8 -29 -33
-91 -56 -138 -34 -70 -57 -101 -132 -176 -166 -165 -354 -268 -971 -534 -370
-159 -422 -188 -526 -297 -118 -122 -169 -221 -270 -526 -111 -337 -185 -475
-330 -612 -153 -145 -336 -241 -612 -321 -65 -19 -125 -34 -133 -34 -12 0 -14
55 -14 355 l0 355 -485 0 -485 0 0 -409 0 -408 -37 -7 c-50 -8 -458 -8 -611 1
l-122 6 0 394 0 393 -490 0 -490 0 -2 -330 -3 -329 -131 43 c-351 118 -577
294 -707 551 -49 96 -69 149 -142 371 -92 277 -165 413 -287 530 -91 89 -178
137 -501 280 -764 337 -988 485 -1112 733 -59 117 -86 247 -109 519 l-6 62
516 0 c488 0 517 -1 542 -19z m4582 -2745 c0 -250 -2 -285 -16 -290 -53 -20
-636 -86 -765 -86 l-29 0 0 330 0 330 405 0 405 0 0 -284z m-1740 -56 l0 -310
-54 0 c-143 0 -619 62 -738 96 -17 5 -18 26 -18 265 l0 259 405 0 405 0 0
-310z"/>
<path d="M4305 5619 c-586 -61 -1106 -426 -1360 -954 -229 -478 -229 -1011 1
-1492 89 -186 250 -398 407 -534 786 -681 1971 -524 2548 339 127 190 219 419
260 648 30 167 30 421 0 588 -94 523 -417 965 -891 1219 -281 150 -643 220
-965 186z"/>
</g>
</svg>
